<?xml version="1.0" encoding="UTF-8"?>
<svg width="777px" height="612px" viewBox="0 0 777 612" version="1.1" xmlns="http://www.w3.org/2000/svg" xmlns:xlink="http://www.w3.org/1999/xlink">
    <!-- Generator: Sketch 57 (83077) - https://sketch.com -->
    <title>Combined Shape</title>
    <desc>Created with Sketch.</desc>
    <g id="Page-1" stroke="none" stroke-width="1" fill="none" fill-rule="evenodd">
        <g id="LOGO-EDUARDO-02" transform="translate(-362.000000, -457.000000)" fill="#FFFFFF">
            <path d="M497.1325,1045.78418 C497.276381,1046.11621 497.34832,1046.43717 497.34832,1046.74707 C497.34832,1047.02376 497.292982,1047.21745 497.182305,1047.32812 C497.071627,1047.4388 496.87241,1047.49414 496.584648,1047.49414 L495.505547,1047.49414 C495.417005,1049.30925 495.372734,1053.04457 495.372734,1058.7002 C495.372734,1061.88771 495.773935,1063.96012 496.576348,1064.91748 C497.378761,1065.87484 498.560227,1066.35352 500.120781,1066.35352 C501.946962,1066.35352 503.208668,1065.87208 503.905938,1064.90918 C504.603207,1063.94628 504.951836,1062.1312 504.951836,1059.46387 L504.951259,1057.96799 C504.947032,1052.64925 504.919555,1049.15799 504.868828,1047.49414 L502.992852,1047.49414 C502.848971,1047.11784 502.777031,1046.76921 502.777031,1046.44824 C502.777031,1046.21582 502.835136,1046.04704 502.951348,1045.94189 C503.067559,1045.83675 503.258475,1045.78418 503.524102,1045.78418 L509.932305,1045.78418 C510.065118,1046.11621 510.131523,1046.43717 510.131523,1046.74707 C510.131523,1047.02376 510.076185,1047.21745 509.965508,1047.32812 C509.85483,1047.4388 509.661147,1047.49414 509.384453,1047.49414 L508.205742,1047.49414 C508.150403,1049.03256 508.128268,1052.75127 508.139336,1058.65039 C508.139336,1062.62372 507.370138,1065.30484 505.831719,1066.69385 C504.2933,1068.08285 501.980172,1068.77734 498.892266,1068.77734 C496.24707,1068.77734 494.387714,1068.27377 493.314141,1067.2666 C492.240568,1066.25944 491.703789,1064.2728 491.703789,1061.30664 L491.703224,1059.84512 C491.697826,1053.04918 491.653744,1048.93223 491.570977,1047.49414 L490.110039,1047.49414 C489.977226,1047.11784 489.91082,1046.76921 489.91082,1046.44824 C489.91082,1046.21582 489.968925,1046.04704 490.085137,1045.94189 C490.201348,1045.83675 490.392264,1045.78418 490.657891,1045.78418 L497.1325,1045.78418 Z M1038.40734,1045.78418 C1041.78301,1045.78418 1044.18468,1046.24902 1045.61242,1047.17871 C1047.04016,1048.1084 1047.75402,1049.57486 1047.75402,1051.57812 C1047.75402,1054.6439 1045.9168,1056.73567 1042.2423,1057.85352 C1043.29374,1058.17448 1044.14595,1058.76383 1044.79895,1059.62158 C1045.45194,1060.47933 1046.1409,1061.70507 1046.86584,1063.29883 C1047.59078,1064.89259 1048.16076,1065.8693 1048.5758,1066.229 C1048.99084,1066.58871 1049.58019,1066.75749 1050.34387,1066.73535 C1050.57629,1067.53223 1050.54862,1068.07178 1050.26086,1068.354 C1049.9731,1068.63623 1049.25924,1068.77734 1048.11926,1068.77734 C1046.80219,1068.77734 1045.85591,1068.6058 1045.28039,1068.2627 C1044.70487,1067.91959 1044.10445,1066.69939 1043.47912,1064.60205 C1042.85379,1062.50471 1042.1925,1061.02995 1041.49523,1060.17773 C1040.79797,1059.32552 1039.79081,1058.89941 1038.47375,1058.89941 C1037.78755,1058.89941 1037.10689,1058.95475 1036.43176,1059.06543 C1036.45389,1062.88381 1036.49816,1065.44042 1036.56457,1066.73535 L1038.93859,1066.73535 C1039.07141,1067.06738 1039.13781,1067.38834 1039.13781,1067.69824 C1039.13781,1067.97494 1039.08247,1068.16862 1038.9718,1068.2793 C1038.86112,1068.38997 1038.66744,1068.44531 1038.39074,1068.44531 L1030.58801,1068.44531 C1030.44413,1068.06901 1030.37219,1067.72038 1030.37219,1067.39941 C1030.37219,1067.16699 1030.43029,1066.99821 1030.5465,1066.89307 C1030.66272,1066.78792 1030.85363,1066.73535 1031.11926,1066.73535 L1032.63,1066.73535 C1032.71173,1065.31527 1032.75574,1061.84411 1032.76203,1056.32176 L1032.76281,1054.89844 C1032.76281,1051.50063 1032.71854,1049.03256 1032.63,1047.49414 L1030.70422,1047.49414 C1030.57141,1047.11784 1030.505,1046.76921 1030.505,1046.44824 C1030.505,1046.21582 1030.5631,1046.04704 1030.67932,1045.94189 C1030.79553,1045.83675 1030.98644,1045.78418 1031.25207,1045.78418 L1038.40734,1045.78418 Z M609.526367,1045.45215 C611.928072,1045.45215 613.593745,1045.59326 614.523438,1045.87549 C615.45313,1046.15772 615.917969,1046.7028 615.917969,1047.51074 C615.917969,1048.25228 615.619144,1048.9108 615.021484,1049.48633 C612.697254,1048.42382 610.539072,1047.89258 608.546875,1047.89258 C607.141269,1047.89258 606.147952,1048.17203 605.566895,1048.73096 C604.985837,1049.28988 604.695313,1050.06184 604.695313,1051.04688 C604.695313,1052.07618 605.041175,1052.89518 605.73291,1053.50391 C606.424645,1054.11263 607.738923,1054.72135 609.675781,1055.33008 C611.966808,1056.01628 613.701654,1056.80485 614.880371,1057.6958 C616.059088,1058.58676 616.68164,1060.02831 616.748047,1062.02051 C616.748047,1064.24513 615.98715,1065.9274 614.465332,1067.06738 C612.943515,1068.20736 610.616552,1068.77734 607.484375,1068.77734 C605.304026,1068.77734 603.64942,1068.6224 602.520508,1068.3125 C601.391596,1068.0026 600.827148,1067.42709 600.827148,1066.58594 C600.827148,1065.82226 601.148109,1065.14714 601.790039,1064.56055 C603.981456,1065.75587 606.261381,1066.35352 608.629883,1066.35352 C610.256844,1066.35352 611.413408,1066.08789 612.099609,1065.55664 C612.785811,1065.02539 613.128906,1064.20639 613.128906,1063.09961 C613.128906,1061.77148 612.633631,1060.77539 611.643066,1060.11133 C610.652502,1059.44726 609.072602,1058.77214 606.90332,1058.08594 C604.800445,1057.44401 603.303553,1056.63884 602.412598,1055.67041 C601.521643,1054.70198 601.076172,1053.43197 601.076172,1051.86035 C601.076172,1049.90136 601.803866,1048.34359 603.259277,1047.18701 C604.714688,1046.03043 606.803697,1045.45215 609.526367,1045.45215 Z M944.40418,1045.45215 C947.414611,1045.45215 949.705604,1046.20751 951.277227,1047.71826 C952.848849,1049.22901 953.634648,1051.98761 953.634648,1055.99414 C953.634648,1060.35484 952.729872,1063.57551 950.920293,1065.65625 C949.110714,1067.73699 946.556865,1068.77734 943.258672,1068.77734 C940.24824,1068.77734 937.957247,1068.02475 936.385625,1066.51953 C934.814003,1065.01432 934.028203,1062.25295 934.028203,1058.23535 C934.028203,1053.87465 934.932979,1050.65398 936.742559,1048.57324 C938.552138,1046.4925 941.105986,1045.45215 944.40418,1045.45215 Z M703.346914,1045.45215 C705.272705,1045.45215 706.728094,1045.60709 707.713125,1045.91699 C708.698156,1046.22689 709.190664,1046.7526 709.190664,1047.49414 C709.190664,1048.10287 708.886305,1048.70605 708.277578,1049.30371 C706.285381,1048.35188 704.37622,1047.87598 702.550039,1047.87598 C700.668519,1047.87598 699.251867,1048.55387 698.300039,1049.90967 C697.348211,1051.26547 696.872305,1053.55923 696.872305,1056.79102 C696.872305,1060.3659 697.373113,1062.85335 698.374746,1064.25342 C699.376379,1065.65349 701.000549,1066.35352 703.247305,1066.35352 C705.217367,1066.35352 706.988182,1065.84441 708.559805,1064.82617 C709.146396,1065.4349 709.439688,1066.07129 709.439688,1066.73535 C709.439688,1067.35515 708.725827,1067.85042 707.298086,1068.22119 C705.870344,1068.59196 704.154867,1068.77734 702.151602,1068.77734 C698.953018,1068.77734 696.59562,1068.02475 695.079336,1066.51953 C693.563052,1065.01432 692.804922,1062.28062 692.804922,1058.31836 C692.804922,1053.90232 693.695863,1050.65398 695.477773,1048.57324 C697.259683,1046.4925 699.882704,1045.45215 703.346914,1045.45215 Z M731.565742,1045.78418 C731.709623,1046.11621 731.781563,1046.43717 731.781563,1046.74707 C731.781563,1047.02376 731.726225,1047.21745 731.615547,1047.32812 C731.504869,1047.4388 731.305652,1047.49414 731.017891,1047.49414 L729.772773,1047.49414 C729.695299,1049.03256 729.656563,1052.33624 729.656563,1057.40527 C730.918288,1056.07714 732.368143,1054.51384 734.006172,1052.71533 C735.644201,1050.91682 737.116191,1049.18197 738.422188,1047.51074 L736.977852,1047.51074 C736.833971,1047.13444 736.762031,1046.78028 736.762031,1046.44824 C736.762031,1046.22689 736.820136,1046.06364 736.936348,1045.9585 C737.052559,1045.85335 737.243475,1045.80078 737.509102,1045.80078 L743.502266,1045.78418 C743.646147,1046.11621 743.718086,1046.43717 743.718086,1046.74707 C743.718086,1047.02376 743.662748,1047.21745 743.55207,1047.32812 C743.441393,1047.4388 743.242176,1047.49414 742.954414,1047.49414 L742.05793,1047.49414 L734.803047,1055.09766 C737.95736,1060.04495 739.894189,1063.03596 740.613594,1064.0708 C741.332998,1065.10564 741.91128,1065.80843 742.348457,1066.1792 C742.785634,1066.54997 743.308578,1066.73535 743.917305,1066.73535 C744.127592,1067.49903 744.105457,1068.03027 743.850898,1068.3291 C743.59634,1068.62793 742.92675,1068.77734 741.842109,1068.77734 C740.513978,1068.77734 739.609202,1068.62793 739.127754,1068.3291 C738.646306,1068.03027 738.14273,1067.35515 737.617012,1066.30371 C737.091293,1065.25227 735.428386,1062.24189 732.628242,1057.27246 L729.656563,1060.80859 C729.66763,1063.53126 729.706367,1065.50683 729.772773,1066.73535 L731.565742,1066.73535 C731.698555,1067.06738 731.764961,1067.38834 731.764961,1067.69824 C731.764961,1067.97494 731.709623,1068.16862 731.598945,1068.2793 C731.488268,1068.38997 731.294585,1068.44531 731.017891,1068.44531 L723.796211,1068.44531 C723.65233,1068.06901 723.580391,1067.72038 723.580391,1067.39941 C723.580391,1067.16699 723.638496,1066.99821 723.754707,1066.89307 C723.870919,1066.78792 724.061835,1066.73535 724.327461,1066.73535 L725.838203,1066.73535 C725.926745,1065.19693 725.971016,1061.25133 725.971016,1054.89844 C725.971016,1051.50063 725.926745,1049.03256 725.838203,1047.49414 L723.796211,1047.49414 C723.663398,1047.11784 723.596992,1046.76921 723.596992,1046.44824 C723.596992,1046.21582 723.655097,1046.04704 723.771309,1045.94189 C723.88752,1045.83675 724.078436,1045.78418 724.344063,1045.78418 L731.565742,1045.78418 Z M847.36293,1045.78418 C847.506811,1046.11621 847.57875,1046.43717 847.57875,1046.74707 C847.57875,1047.02376 847.523412,1047.21745 847.412734,1047.32812 C847.302057,1047.4388 847.10284,1047.49414 846.815078,1047.49414 L845.985,1047.49414 C846.294897,1048.89975 847.232876,1052.17299 848.798965,1057.31396 C850.365053,1062.45494 851.225559,1065.02539 851.380508,1065.02539 C851.535457,1065.02539 852.304655,1062.46878 853.688125,1057.35547 C855.071595,1052.24216 855.829726,1048.95509 855.962539,1047.49414 L854.501602,1047.49414 C854.357721,1047.11784 854.285781,1046.76921 854.285781,1046.44824 C854.285781,1046.21582 854.343886,1046.04704 854.460098,1045.94189 C854.576309,1045.83675 854.767225,1045.78418 855.032852,1045.78418 L861.059219,1045.78418 C861.192032,1046.11621 861.258438,1046.43717 861.258438,1046.74707 C861.258438,1047.02376 861.2031,1047.21745 861.092422,1047.32812 C860.981744,1047.4388 860.788061,1047.49414 860.511367,1047.49414 L859.747695,1047.49414 C859.083629,1049.50847 857.913231,1053.19398 856.236465,1058.55078 C854.559699,1063.90758 853.513811,1066.93733 853.09877,1067.64014 C852.683728,1068.34294 851.922831,1068.69434 850.816055,1068.69434 C849.532194,1068.69434 848.821101,1068.65007 848.682754,1068.56152 C848.544407,1068.47298 847.490218,1065.38235 845.520156,1059.28955 C843.550094,1053.19675 842.18878,1049.26498 841.436172,1047.49414 L840.14125,1047.49414 C839.997369,1047.11784 839.92543,1046.76921 839.92543,1046.44824 C839.92543,1046.21582 839.983535,1046.04704 840.099746,1045.94189 C840.215958,1045.83675 840.406874,1045.78418 840.6725,1045.78418 L847.36293,1045.78418 Z M784.151836,1045.78418 C788.612145,1045.78418 791.694471,1046.58381 793.398906,1048.18311 C795.103342,1049.7824 795.955547,1052.41372 795.955547,1056.07715 C795.955547,1060.18329 795.092274,1063.27115 793.365703,1065.34082 C791.639132,1067.41049 788.789226,1068.44531 784.815898,1068.44531 L776.913555,1068.46191 C776.769674,1068.08561 776.697734,1067.73145 776.697734,1067.39941 C776.697734,1067.17806 776.755839,1067.01481 776.872051,1066.90967 C776.988262,1066.80452 777.179178,1066.75195 777.444805,1066.75195 L778.67332,1066.75195 C778.746822,1065.28193 778.785456,1061.65026 778.789226,1055.85686 L778.789531,1054.89844 C778.789531,1051.50063 778.750795,1049.03256 778.67332,1047.49414 L776.913555,1047.49414 C776.769674,1047.11784 776.697734,1046.76921 776.697734,1046.44824 C776.697734,1046.21582 776.755839,1046.04704 776.872051,1045.94189 C776.988262,1045.83675 777.179178,1045.78418 777.444805,1045.78418 L784.151836,1045.78418 Z M825.402891,1045.78418 C826.033753,1045.78418 826.465389,1045.87272 826.697813,1046.0498 C826.930236,1046.22689 827.046445,1046.58105 827.046445,1047.1123 C827.046445,1047.78744 826.836161,1048.4847 826.415586,1049.2041 C824.323779,1048.35188 821.446203,1047.92578 817.782773,1047.92578 L816.338438,1047.92578 C816.260963,1049.17644 816.22776,1051.66111 816.238828,1055.37988 L824.921445,1055.37988 C825.065326,1055.81153 825.137266,1056.2653 825.137266,1056.74121 C825.137266,1057.05111 825.081928,1057.25863 824.97125,1057.36377 C824.860572,1057.46891 824.644754,1057.52148 824.323789,1057.52148 L816.222227,1057.52148 C816.233294,1062.30276 816.272031,1065.23014 816.338438,1066.30371 L818.662656,1066.30371 C822.193273,1066.30371 824.965706,1065.91635 826.980039,1065.1416 C827.334208,1065.75033 827.511289,1066.38118 827.511289,1067.03418 C827.511289,1067.52116 827.350809,1067.87809 827.029844,1068.10498 C826.708879,1068.33187 826.05589,1068.44531 825.070859,1068.44531 L810.660703,1068.46191 C810.516822,1068.08561 810.444883,1067.73145 810.444883,1067.39941 C810.444883,1067.17806 810.502988,1067.01481 810.619199,1066.90967 C810.735411,1066.80452 810.926327,1066.75195 811.191953,1066.75195 L812.420469,1066.75195 C812.49397,1065.28193 812.532605,1061.65026 812.536374,1055.85686 L812.53668,1054.89844 C812.53668,1051.50063 812.497943,1049.03256 812.420469,1047.49414 L810.660703,1047.49414 C810.516822,1047.11784 810.444883,1046.76921 810.444883,1046.44824 C810.444883,1046.21582 810.502988,1046.04704 810.619199,1045.94189 C810.735411,1045.83675 810.926327,1045.78418 811.191953,1045.78418 L825.402891,1045.78418 Z M560.376797,1045.78418 C560.520678,1046.11621 560.592617,1046.43717 560.592617,1046.74707 C560.592617,1047.02376 560.537279,1047.21745 560.426602,1047.32812 C560.315924,1047.4388 560.116707,1047.49414 559.828945,1047.49414 L558.334805,1047.49414 C558.260699,1048.96567 558.222035,1051.34853 558.218813,1054.64279 L558.218884,1056.01203 C558.222564,1061.68506 558.261204,1065.11559 558.334805,1066.30371 L559.745938,1066.30371 C563.110538,1066.30371 565.799964,1065.91635 567.814297,1065.1416 C568.168465,1065.75033 568.345547,1066.38118 568.345547,1067.03418 C568.345547,1067.52116 568.185067,1067.87809 567.864102,1068.10498 C567.543136,1068.33187 566.890148,1068.44531 565.905117,1068.44531 L552.65707,1068.46191 C552.513189,1068.08561 552.44125,1067.73145 552.44125,1067.39941 C552.44125,1067.17806 552.499355,1067.01481 552.615566,1066.90967 C552.731778,1066.80452 552.922694,1066.75195 553.18832,1066.75195 L554.416836,1066.75195 C554.49431,1065.20247 554.533047,1061.25133 554.533047,1054.89844 C554.533047,1051.50063 554.488776,1049.03256 554.400234,1047.49414 L552.65707,1047.49414 C552.513189,1047.11784 552.44125,1046.76921 552.44125,1046.44824 C552.44125,1046.21582 552.499355,1046.04704 552.615566,1045.94189 C552.731778,1045.83675 552.922694,1045.78418 553.18832,1045.78418 L560.376797,1045.78418 Z M889.112031,1045.78418 C889.742894,1045.78418 890.17453,1045.87272 890.406953,1046.0498 C890.639376,1046.22689 890.755586,1046.58105 890.755586,1047.1123 C890.755586,1047.78744 890.545302,1048.4847 890.124727,1049.2041 C888.032919,1048.35188 885.155344,1047.92578 881.491914,1047.92578 L880.047578,1047.92578 C879.970104,1049.17644 879.936901,1051.66111 879.947969,1055.37988 L888.630586,1055.37988 C888.774467,1055.81153 888.846406,1056.2653 888.846406,1056.74121 C888.846406,1057.05111 888.791068,1057.25863 888.680391,1057.36377 C888.569713,1057.46891 888.353895,1057.52148 888.03293,1057.52148 L879.931367,1057.52148 C879.942435,1062.30276 879.981172,1065.23014 880.047578,1066.30371 L882.371797,1066.30371 C885.902413,1066.30371 888.674847,1065.91635 890.68918,1065.1416 C891.043348,1065.75033 891.22043,1066.38118 891.22043,1067.03418 C891.22043,1067.52116 891.05995,1067.87809 890.738984,1068.10498 C890.418019,1068.33187 889.765031,1068.44531 888.78,1068.44531 L874.369844,1068.46191 C874.225963,1068.08561 874.154023,1067.73145 874.154023,1067.39941 C874.154023,1067.17806 874.212128,1067.01481 874.32834,1066.90967 C874.444551,1066.80452 874.635467,1066.75195 874.901094,1066.75195 L876.129609,1066.75195 C876.201124,1065.32166 876.239632,1061.84499 876.245133,1056.32186 L876.24582,1054.89844 C876.24582,1051.50063 876.207084,1049.03256 876.129609,1047.49414 L874.369844,1047.49414 C874.225963,1047.11784 874.154023,1046.76921 874.154023,1046.44824 C874.154023,1046.21582 874.212128,1046.04704 874.32834,1045.94189 C874.444551,1045.83675 874.635467,1045.78418 874.901094,1045.78418 L889.112031,1045.78418 Z M912.898242,1045.78418 C913.042123,1046.11621 913.114063,1046.43717 913.114063,1046.74707 C913.114063,1047.02376 913.058725,1047.21745 912.948047,1047.32812 C912.837369,1047.4388 912.638152,1047.49414 912.350391,1047.49414 L910.85625,1047.49414 C910.785513,1048.89878 910.747069,1051.13379 910.740918,1054.19922 L910.740693,1056.45524 C910.746067,1061.86406 910.784586,1065.14685 910.85625,1066.30371 L912.267383,1066.30371 C915.631983,1066.30371 918.321409,1065.91635 920.335742,1065.1416 C920.689911,1065.75033 920.866992,1066.38118 920.866992,1067.03418 C920.866992,1067.52116 920.706512,1067.87809 920.385547,1068.10498 C920.064582,1068.33187 919.411593,1068.44531 918.426563,1068.44531 L905.178516,1068.46191 C905.034635,1068.08561 904.962695,1067.73145 904.962695,1067.39941 C904.962695,1067.17806 905.0208,1067.01481 905.137012,1066.90967 C905.253223,1066.80452 905.444139,1066.75195 905.709766,1066.75195 L906.938281,1066.75195 C907.011783,1065.28193 907.050417,1061.65026 907.054187,1055.85686 L907.054492,1054.89844 C907.054492,1051.50063 907.010222,1049.03256 906.92168,1047.49414 L905.178516,1047.49414 C905.034635,1047.11784 904.962695,1046.76921 904.962695,1046.44824 C904.962695,1046.21582 905.0208,1046.04704 905.137012,1045.94189 C905.253223,1045.83675 905.444139,1045.78418 905.709766,1045.78418 L912.898242,1045.78418 Z M1014.52152,1045.78418 C1015.15239,1045.78418 1015.58402,1045.87272 1015.81645,1046.0498 C1016.04887,1046.22689 1016.16508,1046.58105 1016.16508,1047.1123 C1016.16508,1047.78744 1015.95479,1048.4847 1015.53422,1049.2041 C1013.44241,1048.35188 1010.56484,1047.92578 1006.90141,1047.92578 L1005.45707,1047.92578 C1005.3796,1049.17644 1005.34639,1051.66111 1005.35746,1055.37988 L1014.04008,1055.37988 C1014.18396,1055.81153 1014.2559,1056.2653 1014.2559,1056.74121 C1014.2559,1057.05111 1014.20056,1057.25863 1014.08988,1057.36377 C1013.97921,1057.46891 1013.76339,1057.52148 1013.44242,1057.52148 L1005.34086,1057.52148 C1005.35193,1062.30276 1005.39066,1065.23014 1005.45707,1066.30371 L1007.78129,1066.30371 C1011.31191,1066.30371 1014.08434,1065.91635 1016.09867,1065.1416 C1016.45284,1065.75033 1016.62992,1066.38118 1016.62992,1067.03418 C1016.62992,1067.52116 1016.46944,1067.87809 1016.14848,1068.10498 C1015.82751,1068.33187 1015.17452,1068.44531 1014.18949,1068.44531 L999.779336,1068.46191 C999.635455,1068.08561 999.563516,1067.73145 999.563516,1067.39941 C999.563516,1067.17806 999.621621,1067.01481 999.737832,1066.90967 C999.854044,1066.80452 1000.04496,1066.75195 1000.31059,1066.75195 L1001.5391,1066.75195 C1001.6126,1065.28193 1001.65124,1061.65026 1001.65501,1055.85686 L1001.65531,1054.89844 C1001.65531,1051.50063 1001.61658,1049.03256 1001.5391,1047.49414 L999.779336,1047.49414 C999.635455,1047.11784 999.563516,1046.76921 999.563516,1046.44824 C999.563516,1046.21582 999.621621,1046.04704 999.737832,1045.94189 C999.854044,1045.83675 1000.04496,1045.78418 1000.31059,1045.78418 L1014.52152,1045.78418 Z M531.576914,1045.78418 C531.720795,1046.11621 531.792734,1046.43717 531.792734,1046.74707 C531.792734,1047.02376 531.737396,1047.21745 531.626719,1047.32812 C531.516041,1047.4388 531.316824,1047.49414 531.029063,1047.49414 L529.534922,1047.49414 C529.460816,1048.96567 529.422153,1051.34853 529.418931,1054.64279 L529.418711,1055.09766 C529.418711,1061.31774 529.457448,1065.05305 529.534922,1066.30371 L530.946055,1066.30371 C534.310655,1066.30371 537.000081,1065.91635 539.014414,1065.1416 C539.368583,1065.75033 539.545664,1066.38118 539.545664,1067.03418 C539.545664,1067.52116 539.385184,1067.87809 539.064219,1068.10498 C538.743254,1068.33187 538.090265,1068.44531 537.105234,1068.44531 L523.857188,1068.46191 C523.713307,1068.08561 523.641367,1067.73145 523.641367,1067.39941 C523.641367,1067.17806 523.699472,1067.01481 523.815684,1066.90967 C523.931895,1066.80452 524.122811,1066.75195 524.388438,1066.75195 L525.616953,1066.75195 C525.694427,1065.20247 525.733164,1061.25133 525.733164,1054.89844 C525.733164,1051.50063 525.688894,1049.03256 525.600352,1047.49414 L523.857188,1047.49414 C523.713307,1047.11784 523.641367,1046.76921 523.641367,1046.44824 C523.641367,1046.21582 523.699472,1046.04704 523.815684,1045.94189 C523.931895,1045.83675 524.122811,1045.78418 524.388438,1045.78418 L531.576914,1045.78418 Z M671.475742,1045.67627 C671.641759,1045.77035 672.759586,1048.86374 674.829258,1054.95654 C676.89893,1061.04935 678.298981,1064.97558 679.029453,1066.73535 L680.490391,1066.73535 C680.623204,1067.06738 680.689609,1067.38834 680.689609,1067.69824 C680.689609,1067.97494 680.634271,1068.16862 680.523594,1068.2793 C680.412916,1068.38997 680.219233,1068.44531 679.942539,1068.44531 L673.052891,1068.44531 C672.90901,1068.06901 672.83707,1067.72038 672.83707,1067.39941 C672.83707,1067.16699 672.895175,1066.99821 673.011387,1066.89307 C673.127598,1066.78792 673.318514,1066.73535 673.584141,1066.73535 L674.480625,1066.73535 C674.270337,1065.75032 673.739093,1063.85776 672.886875,1061.05762 L665.39957,1061.05762 C664.624827,1063.83563 664.159988,1065.72819 664.005039,1066.73535 L665.548984,1066.73535 C665.681798,1067.06738 665.748203,1067.38834 665.748203,1067.69824 C665.748203,1067.97494 665.692865,1068.16862 665.582188,1068.2793 C665.47151,1068.38997 665.277827,1068.44531 665.001133,1068.44531 L658.891758,1068.44531 C658.758945,1068.06901 658.692539,1067.72038 658.692539,1067.39941 C658.692539,1067.16699 658.750644,1066.99821 658.866855,1066.89307 C658.983067,1066.78792 659.173983,1066.73535 659.439609,1066.73535 L660.4025,1066.73535 C661.132972,1064.72102 662.344874,1061.08255 664.038242,1055.81982 C665.73161,1050.5571 666.777498,1047.52735 667.175938,1046.73047 C667.574377,1045.93359 668.299305,1045.53516 669.350742,1045.53516 C670.601399,1045.53516 671.309726,1045.58219 671.475742,1045.67627 Z M475.620703,1045.78418 C476.251566,1045.78418 476.683202,1045.87272 476.915625,1046.0498 C477.148048,1046.22689 477.264258,1046.58105 477.264258,1047.1123 C477.264258,1047.78744 477.053973,1048.4847 476.633398,1049.2041 C474.541591,1048.35188 471.664016,1047.92578 468.000586,1047.92578 L466.55625,1047.92578 C466.478776,1049.17644 466.440039,1051.82713 466.440039,1055.87793 L474.641211,1055.87793 C474.785092,1056.30957 474.857031,1056.76334 474.857031,1057.23926 C474.857031,1057.54916 474.801693,1057.75667 474.691016,1057.86182 C474.580338,1057.96696 474.36452,1058.01953 474.043555,1058.01953 L466.440039,1058.01953 C466.451107,1062.55731 466.489843,1065.46256 466.55625,1066.73535 L469.229102,1066.73535 C469.361915,1067.06738 469.42832,1067.38834 469.42832,1067.69824 C469.42832,1067.97494 469.372982,1068.16862 469.262305,1068.2793 C469.151627,1068.38997 468.957944,1068.44531 468.68125,1068.44531 L460.878516,1068.44531 C460.734635,1068.06901 460.662695,1067.72038 460.662695,1067.39941 C460.662695,1067.16699 460.7208,1066.99821 460.837012,1066.89307 C460.953223,1066.78792 461.144139,1066.73535 461.409766,1066.73535 L462.638281,1066.73535 C462.711783,1065.27583 462.750417,1061.64968 462.754187,1055.85681 L462.754492,1054.89844 C462.754492,1051.50063 462.715756,1049.03256 462.638281,1047.49414 L460.878516,1047.49414 C460.734635,1047.11784 460.662695,1046.76921 460.662695,1046.44824 C460.662695,1046.21582 460.7208,1046.04704 460.837012,1045.94189 C460.953223,1045.83675 461.144139,1045.78418 461.409766,1045.78418 L475.620703,1045.78418 Z M975.627891,1045.78418 C979.778302,1045.78418 982.570104,1046.29329 984.003379,1047.31152 C985.436654,1048.32976 986.153281,1049.99543 986.153281,1052.30859 C986.153281,1054.7103 985.295542,1056.57519 983.580039,1057.90332 C981.864536,1059.23145 979.009095,1059.89551 975.013633,1059.89551 L974.166953,1059.89551 C974.189089,1063.30438 974.233359,1065.5843 974.299766,1066.73535 L976.839805,1066.73535 C976.972618,1067.06738 977.039023,1067.38834 977.039023,1067.69824 C977.039023,1067.97494 976.983685,1068.16862 976.873008,1068.2793 C976.76233,1068.38997 976.568647,1068.44531 976.291953,1068.44531 L968.323203,1068.44531 C968.179322,1068.06901 968.107383,1067.72038 968.107383,1067.39941 C968.107383,1067.16699 968.165488,1066.99821 968.281699,1066.89307 C968.397911,1066.78792 968.588827,1066.73535 968.854453,1066.73535 L970.365195,1066.73535 C970.453737,1065.19693 970.498008,1061.25133 970.498008,1054.89844 C970.498008,1051.50063 970.453737,1049.03256 970.365195,1047.49414 L968.439414,1047.49414 C968.306601,1047.11784 968.240195,1046.76921 968.240195,1046.44824 C968.240195,1046.21582 968.2983,1046.04704 968.414512,1045.94189 C968.530723,1045.83675 968.721639,1045.78418 968.987266,1045.78418 L975.627891,1045.78418 Z M630.14168,1045.03711 C632.0232,1045.53516 634.751362,1045.78418 638.32625,1045.78418 L648.702227,1045.78418 C649.189208,1045.78418 649.529537,1045.86442 649.723223,1046.0249 C649.916909,1046.18538 650.01375,1046.47591 650.01375,1046.89648 C650.01375,1047.67123 649.786864,1048.40722 649.333086,1049.10449 C647.484769,1048.31868 645.083101,1047.92578 642.128008,1047.92578 L641.563555,1047.92578 C641.478554,1049.12641 641.434355,1051.37762 641.430955,1054.67945 L641.430742,1055.09766 C641.430742,1061.31774 641.475013,1065.19693 641.563555,1066.73535 L643.937578,1066.73535 C644.070391,1067.06738 644.136797,1067.38834 644.136797,1067.69824 C644.136797,1067.97494 644.081459,1068.16862 643.970781,1068.2793 C643.860104,1068.38997 643.666421,1068.44531 643.389727,1068.44531 L635.254961,1068.44531 C635.11108,1068.06901 635.039141,1067.72038 635.039141,1067.39941 C635.039141,1067.16699 635.097246,1066.99821 635.213457,1066.89307 C635.329669,1066.78792 635.520585,1066.73535 635.786211,1066.73535 L637.628984,1066.73535 C637.710716,1065.31527 637.754724,1061.84411 637.761011,1056.32176 L637.761797,1054.89844 C637.761797,1051.50063 637.717526,1049.17644 637.628984,1047.92578 C633.699928,1048.0918 631.480875,1048.1748 630.971758,1048.1748 C630.484776,1048.1748 630.147214,1048.09733 629.959063,1047.94238 C629.770911,1047.78743 629.676836,1047.49414 629.676836,1047.0625 C629.676836,1046.44271 629.831782,1045.76758 630.14168,1045.03711 Z M943.607305,1047.87598 C941.781124,1047.87598 940.405975,1048.5677 939.481816,1049.95117 C938.557658,1051.33464 938.095586,1053.5869 938.095586,1056.70801 C938.095586,1060.40464 938.596395,1062.93635 939.598027,1064.30322 C940.59966,1065.67009 942.085485,1066.35352 944.055547,1066.35352 C945.881728,1066.35352 947.256877,1065.66179 948.181035,1064.27832 C949.105193,1062.89485 949.567266,1060.64259 949.567266,1057.52148 C949.567266,1053.78058 949.066457,1051.2378 948.064824,1049.89307 C947.063192,1048.54833 945.577367,1047.87598 943.607305,1047.87598 Z M784.749492,1048.20801 C783.908342,1048.20801 783.188948,1048.26335 782.591289,1048.37402 C782.519774,1049.9167 782.481267,1053.53404 782.475766,1059.22613 L782.475078,1060.69238 C782.475078,1063.43719 782.618957,1065.01155 782.906719,1065.41553 C783.194481,1065.8195 784.196098,1066.02148 785.911602,1066.02148 C787.914867,1066.02148 789.411759,1065.41 790.402324,1064.18701 C791.392889,1062.96402 791.888164,1060.68687 791.888164,1057.35547 C791.888164,1053.93553 791.309882,1051.556 790.153301,1050.2168 C788.996719,1048.8776 787.195468,1048.20801 784.749492,1048.20801 Z M668.993809,1049.30371 C668.844394,1049.30371 667.840009,1052.50778 665.980625,1058.91602 L672.239414,1058.91602 C670.225081,1052.50778 669.143223,1049.30371 668.993809,1049.30371 Z M976.192344,1048.20801 C975.495075,1048.20801 974.864222,1048.26335 974.299766,1048.37402 C974.211224,1049.32585 974.166953,1051.56704 974.166953,1055.09766 L974.166953,1057.80371 L975.51168,1057.80371 C977.946588,1057.80371 979.650998,1057.45508 980.624961,1056.75781 C981.598924,1056.06054 982.085898,1054.88184 982.085898,1053.22168 C982.085898,1051.62792 981.626593,1050.39388 980.707969,1049.51953 C979.789344,1048.64518 978.284151,1048.20801 976.192344,1048.20801 Z M1038.49035,1048.20801 C1037.72668,1048.20801 1037.08476,1048.26335 1036.56457,1048.37402 C1036.47931,1049.2906 1036.4351,1051.40279 1036.43194,1054.71067 L1036.43176,1056.80762 L1037.82629,1056.80762 C1039.75208,1056.80762 1041.21024,1056.47006 1042.2008,1055.79492 C1043.19137,1055.11979 1043.68664,1054.11264 1043.68664,1052.77344 C1043.68664,1051.20182 1043.2384,1050.04802 1042.34191,1049.31201 C1041.44543,1048.57601 1040.16158,1048.20801 1038.49035,1048.20801 Z M739.426953,970.869141 C744.73948,970.869141 748.782408,972.202135 751.555859,974.868164 C754.329311,977.534193 755.716016,982.402308 755.716016,989.472656 C755.716016,997.168007 754.119352,1002.85154 750.925977,1006.52344 C747.732601,1010.19533 743.22581,1012.03125 737.405469,1012.03125 C732.092942,1012.03125 728.050014,1010.70314 725.276563,1008.04688 C722.503111,1005.39061 721.116406,1000.51761 721.116406,993.427734 C721.116406,985.732383 722.71307,980.048846 725.906445,976.376953 C729.099821,972.70506 733.606612,970.869141 739.426953,970.869141 Z M613.715625,971.455078 C619.672686,971.455078 623.910925,972.275382 626.430469,973.916016 C628.950013,975.556649 630.209766,978.144514 630.209766,981.679688 C630.209766,987.089871 626.967611,990.78124 620.483203,992.753906 C622.338681,993.320315 623.842572,994.360344 624.994922,995.874023 C626.147271,997.387703 627.36308,999.550767 628.642383,1002.36328 C629.921686,1005.1758 630.927535,1006.89941 631.659961,1007.53418 C632.392386,1008.16895 633.432415,1008.4668 634.780078,1008.42773 C635.190236,1009.83399 635.141409,1010.78613 634.633594,1011.28418 C634.125779,1011.78223 632.866026,1012.03125 630.854297,1012.03125 C628.530067,1012.03125 626.860161,1011.72852 625.844531,1011.12305 C624.828901,1010.51758 623.769341,1008.36428 622.66582,1004.66309 C621.562299,1000.9619 620.395319,998.359383 619.164844,996.855469 C617.934369,995.351555 616.157043,994.599609 613.832813,994.599609 C612.621869,994.599609 611.420709,994.697265 610.229297,994.892578 C610.26836,1001.63089 610.346484,1006.14257 610.463672,1008.42773 L614.653125,1008.42773 C614.887501,1009.01367 615.004688,1009.58008 615.004688,1010.12695 C615.004688,1010.61524 614.907032,1010.95703 614.711719,1011.15234 C614.516405,1011.34766 614.174612,1011.44531 613.686328,1011.44531 L599.916797,1011.44531 C599.662889,1010.78125 599.535938,1010.16602 599.535938,1009.59961 C599.535938,1009.18945 599.638476,1008.8916 599.843555,1008.70605 C600.048634,1008.52051 600.385545,1008.42773 600.854297,1008.42773 L603.520313,1008.42773 C603.668193,1005.85832 603.746093,999.483881 603.754015,989.304254 L603.754688,987.539062 C603.754688,981.542939 603.676563,977.187514 603.520313,974.472656 L600.121875,974.472656 C599.887499,973.80859 599.770313,973.193362 599.770313,972.626953 C599.770313,972.216795 599.872851,971.918946 600.07793,971.733398 C600.283009,971.547851 600.61992,971.455078 601.088672,971.455078 L613.715625,971.455078 Z M834.230078,970.869141 C838.468381,970.869141 841.407804,971.118162 843.048438,971.616211 C844.689071,972.11426 845.509375,973.076165 845.509375,974.501953 C845.509375,975.810553 844.982037,976.972651 843.927344,977.988281 C839.825761,976.113272 836.017205,975.175781 832.501563,975.175781 C830.021081,975.175781 828.268169,975.66894 827.242773,976.655273 C826.217378,977.641606 825.704688,979.003898 825.704688,980.742188 C825.704688,982.558603 826.315033,984.003901 827.535742,985.078125 C828.756451,986.152349 831.075764,987.226557 834.49375,988.300781 C838.536739,989.511725 841.598232,990.903312 843.67832,992.475586 C845.758409,994.047859 846.857031,996.591779 846.974219,1000.10742 C846.974219,1004.03322 845.631459,1007.00194 842.945898,1009.01367 C840.260338,1011.0254 836.153934,1012.03125 830.626563,1012.03125 C826.778887,1012.03125 823.858994,1011.75782 821.866797,1011.21094 C819.874599,1010.66406 818.878516,1009.64844 818.878516,1008.16406 C818.878516,1006.8164 819.444916,1005.62501 820.577734,1004.58984 C824.444941,1006.69923 828.468338,1007.75391 832.648047,1007.75391 C835.519155,1007.75391 837.56015,1007.28516 838.771094,1006.34766 C839.982037,1005.41015 840.5875,1003.96485 840.5875,1002.01172 C840.5875,999.667957 839.713485,997.910162 837.96543,996.738281 C836.217374,995.5664 833.429316,994.375006 829.601172,993.164062 C825.890216,992.031244 823.248641,990.61036 821.676367,988.901367 C820.104094,987.192374 819.317969,984.951186 819.317969,982.177734 C819.317969,978.720686 820.602136,975.97169 823.170508,973.930664 C825.73888,971.889638 829.425367,970.869141 834.230078,970.869141 Z M491.285547,971.455078 C491.539454,972.041019 491.666406,972.607419 491.666406,973.154297 C491.666406,973.642581 491.568751,973.984374 491.373438,974.179688 C491.178124,974.375001 490.826565,974.472656 490.31875,974.472656 L488.414453,974.472656 C488.258202,977.675797 488.180078,984.267528 488.180078,994.248047 C488.180078,999.873075 488.888079,1003.53026 490.304102,1005.21973 C491.720124,1006.90919 493.805064,1007.75391 496.558984,1007.75391 C499.781657,1007.75391 502.008197,1006.90431 503.238672,1005.20508 C504.469147,1003.50585 505.084375,1000.30276 505.084375,995.595703 L505.084174,994.402724 C505.080691,984.200455 505.03193,977.557162 504.937891,974.472656 L501.627344,974.472656 C501.373436,973.80859 501.246484,973.193362 501.246484,972.626953 C501.246484,972.216795 501.349022,971.918946 501.554102,971.733398 C501.759181,971.547851 502.096091,971.455078 502.564844,971.455078 L513.873438,971.455078 C514.107814,972.041019 514.225,972.607419 514.225,973.154297 C514.225,973.642581 514.127345,973.984374 513.932031,974.179688 C513.736718,974.375001 513.394924,974.472656 512.906641,974.472656 L510.826563,974.472656 C510.728906,977.187514 510.689844,983.749948 510.709375,994.160156 C510.709375,1001.17191 509.351967,1005.90331 506.637109,1008.35449 C503.922252,1010.80568 499.840262,1012.03125 494.391016,1012.03125 C489.723024,1012.03125 486.441806,1011.14259 484.547266,1009.36523 C482.652725,1007.58788 481.705469,1004.08206 481.705469,998.847656 L481.70524,997.59458 C481.70051,984.809908 481.622462,977.102674 481.471094,974.472656 L478.892969,974.472656 C478.658593,973.80859 478.541406,973.193362 478.541406,972.626953 C478.541406,972.216795 478.643944,971.918946 478.849023,971.733398 C479.054103,971.547851 479.391013,971.455078 479.859766,971.455078 L491.285547,971.455078 Z M886.260547,971.455078 C886.514454,972.041019 886.641406,972.607419 886.641406,973.154297 C886.641406,973.642581 886.543751,973.984374 886.348438,974.179688 C886.153124,974.375001 885.801565,974.472656 885.29375,974.472656 L883.389453,974.472656 C883.233202,977.675797 883.155078,984.267528 883.155078,994.248047 C883.155078,999.873075 883.863079,1003.53026 885.279102,1005.21973 C886.695124,1006.90919 888.780064,1007.75391 891.533984,1007.75391 C894.756657,1007.75391 896.983197,1006.90431 898.213672,1005.20508 C899.444147,1003.50585 900.059375,1000.30276 900.059375,995.595703 L900.059174,994.402724 C900.055691,984.200455 900.00693,977.557162 899.912891,974.472656 L896.602344,974.472656 C896.348436,973.80859 896.221484,973.193362 896.221484,972.626953 C896.221484,972.216795 896.324022,971.918946 896.529102,971.733398 C896.734181,971.547851 897.071091,971.455078 897.539844,971.455078 L908.848438,971.455078 C909.082814,972.041019 909.2,972.607419 909.2,973.154297 C909.2,973.642581 909.102345,973.984374 908.907031,974.179688 C908.711718,974.375001 908.369924,974.472656 907.881641,974.472656 L905.801563,974.472656 C905.703906,977.187514 905.664844,983.749948 905.684375,994.160156 C905.684375,1001.17191 904.326967,1005.90331 901.612109,1008.35449 C898.897252,1010.80568 894.815262,1012.03125 889.366016,1012.03125 C884.698024,1012.03125 881.416806,1011.14259 879.522266,1009.36523 C877.627725,1007.58788 876.680469,1004.08206 876.680469,998.847656 L876.68024,997.59458 C876.67551,984.809908 876.597462,977.102674 876.446094,974.472656 L873.867969,974.472656 C873.633593,973.80859 873.516406,973.193362 873.516406,972.626953 C873.516406,972.216795 873.618944,971.918946 873.824023,971.733398 C874.029103,971.547851 874.366013,971.455078 874.834766,971.455078 L886.260547,971.455078 Z M1008.69063,971.455078 C1014.64769,971.455078 1018.88592,972.275382 1021.40547,973.916016 C1023.92501,975.556649 1025.18477,978.144514 1025.18477,981.679688 C1025.18477,987.089871 1021.94261,990.78124 1015.4582,992.753906 C1017.31368,993.320315 1018.81757,994.360344 1019.96992,995.874023 C1021.12227,997.387703 1022.33808,999.550767 1023.61738,1002.36328 C1024.89669,1005.1758 1025.90254,1006.89941 1026.63496,1007.53418 C1027.36739,1008.16895 1028.40742,1008.4668 1029.75508,1008.42773 C1030.16524,1009.83399 1030.11641,1010.78613 1029.60859,1011.28418 C1029.10078,1011.78223 1027.84103,1012.03125 1025.8293,1012.03125 C1023.50507,1012.03125 1021.83516,1011.72852 1020.81953,1011.12305 C1019.8039,1010.51758 1018.74434,1008.36428 1017.64082,1004.66309 C1016.5373,1000.9619 1015.37032,998.359383 1014.13984,996.855469 C1012.90937,995.351555 1011.13204,994.599609 1008.80781,994.599609 C1007.59687,994.599609 1006.39571,994.697265 1005.2043,994.892578 C1005.24336,1001.63089 1005.32148,1006.14257 1005.43867,1008.42773 L1009.62813,1008.42773 C1009.8625,1009.01367 1009.97969,1009.58008 1009.97969,1010.12695 C1009.97969,1010.61524 1009.88203,1010.95703 1009.68672,1011.15234 C1009.49141,1011.34766 1009.14961,1011.44531 1008.66133,1011.44531 L994.891797,1011.44531 C994.637889,1010.78125 994.510938,1010.16602 994.510938,1009.59961 C994.510938,1009.18945 994.613476,1008.8916 994.818555,1008.70605 C995.023634,1008.52051 995.360545,1008.42773 995.829297,1008.42773 L998.495313,1008.42773 C998.643193,1005.85832 998.721093,999.483881 998.729015,989.304254 L998.729688,987.539062 C998.729688,981.542939 998.651563,977.187514 998.495313,974.472656 L995.096875,974.472656 C994.862499,973.80859 994.745313,973.193362 994.745313,972.626953 C994.745313,972.216795 994.847851,971.918946 995.05293,971.733398 C995.258009,971.547851 995.59492,971.455078 996.063672,971.455078 L1008.69063,971.455078 Z M431.051953,971.455078 C438.923086,971.455078 444.362485,972.866197 447.370313,975.688477 C450.37814,978.510756 451.882031,983.154265 451.882031,989.619141 C451.882031,996.865271 450.358609,1002.31443 447.311719,1005.9668 C444.264829,1009.61916 439.235582,1011.44531 432.223828,1011.44531 L418.278516,1011.47461 C418.024608,1010.81054 417.897656,1010.18555 417.897656,1009.59961 C417.897656,1009.20898 418.000194,1008.9209 418.205273,1008.73535 C418.410353,1008.5498 418.747263,1008.45703 419.216016,1008.45703 L421.383984,1008.45703 C421.520704,1005.72264 421.589063,998.750056 421.589063,987.539062 C421.589063,981.542939 421.520704,977.187514 421.383984,974.472656 L418.278516,974.472656 C418.024608,973.80859 417.897656,973.193362 417.897656,972.626953 C417.897656,972.216795 418.000194,971.918946 418.205273,971.733398 C418.410353,971.547851 418.747263,971.455078 419.216016,971.455078 L431.051953,971.455078 Z M672.71875,971.455078 C680.589883,971.455078 686.029282,972.866197 689.037109,975.688477 C692.044937,978.510756 693.548828,983.154265 693.548828,989.619141 C693.548828,996.865271 692.025406,1002.31443 688.978516,1005.9668 C685.931625,1009.61916 680.902379,1011.44531 673.890625,1011.44531 L659.945313,1011.47461 C659.691405,1010.81054 659.564453,1010.18555 659.564453,1009.59961 C659.564453,1009.20898 659.666991,1008.9209 659.87207,1008.73535 C660.077149,1008.5498 660.41406,1008.45703 660.882813,1008.45703 L663.050781,1008.45703 C663.180176,1005.86913 663.248339,999.484956 663.255271,989.304338 L663.255859,987.539062 C663.255859,981.542939 663.187501,977.187514 663.050781,974.472656 L659.945313,974.472656 C659.691405,973.80859 659.564453,973.193362 659.564453,972.626953 C659.564453,972.216795 659.666991,971.918946 659.87207,971.733398 C660.077149,971.547851 660.41406,971.455078 660.882813,971.455078 L672.71875,971.455078 Z M388.396484,971.455078 C389.509771,971.455078 390.271482,971.611327 390.681641,971.923828 C391.091799,972.23633 391.296875,972.861323 391.296875,973.798828 C391.296875,974.99024 390.925785,976.220697 390.183594,977.490234 C386.492169,975.986321 381.414095,975.234375 374.949219,975.234375 L372.400391,975.234375 C372.263671,977.441417 372.205078,981.826139 372.224609,988.388672 L387.546875,988.388672 C387.800783,989.150394 387.927734,989.951168 387.927734,990.791016 C387.927734,991.337893 387.830079,991.704101 387.634766,991.889648 C387.439452,992.075196 387.058597,992.167969 386.492188,992.167969 L372.195313,992.167969 C372.214844,1000.60551 372.283203,1005.77147 372.400391,1007.66602 L376.501953,1007.66602 C382.732453,1007.66602 387.624982,1006.98243 391.179688,1005.61523 C391.804691,1006.68946 392.117188,1007.80273 392.117188,1008.95508 C392.117188,1009.81446 391.833987,1010.44433 391.267578,1010.84473 C390.701169,1011.24512 389.548837,1011.44531 387.810547,1011.44531 L362.380859,1011.47461 C362.126952,1010.81054 362,1010.18555 362,1009.59961 C362,1009.20898 362.102538,1008.9209 362.307617,1008.73535 C362.512696,1008.5498 362.849607,1008.45703 363.318359,1008.45703 L365.486328,1008.45703 C365.618165,1005.8203 365.686436,999.242692 365.691145,988.724022 L365.691406,987.539062 C365.691406,981.542939 365.623048,977.187514 365.486328,974.472656 L362.380859,974.472656 C362.126952,973.80859 362,973.193362 362,972.626953 C362,972.216795 362.102538,971.918946 362.307617,971.733398 C362.512696,971.547851 362.849607,971.455078 363.318359,971.455078 L388.396484,971.455078 Z M1080.93594,971.455078 C1082.04922,971.455078 1082.81094,971.611327 1083.22109,971.923828 C1083.63125,972.23633 1083.83633,972.861323 1083.83633,973.798828 C1083.83633,974.99024 1083.46524,976.220697 1082.72305,977.490234 C1079.03162,975.986321 1073.95355,975.234375 1067.48867,975.234375 L1064.93984,975.234375 C1064.80312,977.441417 1064.74453,981.826139 1064.76406,988.388672 L1080.08633,988.388672 C1080.34024,989.150394 1080.46719,989.951168 1080.46719,990.791016 C1080.46719,991.337893 1080.36953,991.704101 1080.17422,991.889648 C1079.97891,992.075196 1079.59805,992.167969 1079.03164,992.167969 L1064.73477,992.167969 C1064.7543,1000.60551 1064.82266,1005.77147 1064.93984,1007.66602 L1069.04141,1007.66602 C1075.27191,1007.66602 1080.16444,1006.98243 1083.71914,1005.61523 C1084.34414,1006.68946 1084.65664,1007.80273 1084.65664,1008.95508 C1084.65664,1009.81446 1084.37344,1010.44433 1083.80703,1010.84473 C1083.24062,1011.24512 1082.08829,1011.44531 1080.35,1011.44531 L1054.92031,1011.47461 C1054.6664,1010.81054 1054.53945,1010.18555 1054.53945,1009.59961 C1054.53945,1009.20898 1054.64199,1008.9209 1054.84707,1008.73535 C1055.05215,1008.5498 1055.38906,1008.45703 1055.85781,1008.45703 L1058.02578,1008.45703 C1058.15518,1005.86913 1058.22334,999.484956 1058.23027,989.304338 L1058.23086,987.539062 C1058.23086,981.542939 1058.1625,977.187514 1058.02578,974.472656 L1054.92031,974.472656 C1054.6664,973.80859 1054.53945,973.193362 1054.53945,972.626953 C1054.53945,972.216795 1054.64199,971.918946 1054.84707,971.733398 C1055.05215,971.547851 1055.38906,971.455078 1055.85781,971.455078 L1080.93594,971.455078 Z M950.302734,971.015625 C952.509777,971.015625 953.759764,971.098632 954.052734,971.264648 C954.345705,971.430665 956.318341,976.889595 959.970703,987.641602 C963.623065,998.393608 966.093744,1005.32225 967.382813,1008.42773 L969.960938,1008.42773 C970.195314,1009.01367 970.3125,1009.58008 970.3125,1010.12695 C970.3125,1010.61524 970.214845,1010.95703 970.019531,1011.15234 C969.824218,1011.34766 969.482424,1011.44531 968.994141,1011.44531 L956.835938,1011.44531 C956.58203,1010.78125 956.455078,1010.16602 956.455078,1009.59961 C956.455078,1009.18945 956.557616,1008.8916 956.762695,1008.70605 C956.967774,1008.52051 957.304685,1008.42773 957.773438,1008.42773 L959.355469,1008.42773 C958.984373,1006.68944 958.046883,1003.34963 956.542969,998.408203 L943.330078,998.408203 C941.962884,1003.31057 941.142579,1006.65038 940.869141,1008.42773 L943.59375,1008.42773 C943.828126,1009.01367 943.945313,1009.58008 943.945313,1010.12695 C943.945313,1010.61524 943.847657,1010.95703 943.652344,1011.15234 C943.45703,1011.34766 943.115237,1011.44531 942.626953,1011.44531 L931.845703,1011.44531 C931.611327,1010.78125 931.494141,1010.16602 931.494141,1009.59961 C931.494141,1009.18945 931.596679,1008.8916 931.801758,1008.70605 C932.006837,1008.52051 932.343748,1008.42773 932.8125,1008.42773 L934.511719,1008.42773 C935.800788,1004.87303 937.939438,998.452195 940.927734,989.165039 C943.916031,979.877883 945.761715,974.531257 946.464844,973.125 C947.167972,971.718743 948.447256,971.015625 950.302734,971.015625 Z M555.327734,971.015625 C557.534777,971.015625 558.784764,971.098632 559.077734,971.264648 C559.370705,971.430665 561.343341,976.889595 564.995703,987.641602 C568.648065,998.393608 571.118744,1005.32225 572.407813,1008.42773 L574.985938,1008.42773 C575.220314,1009.01367 575.3375,1009.58008 575.3375,1010.12695 C575.3375,1010.61524 575.239845,1010.95703 575.044531,1011.15234 C574.849218,1011.34766 574.507424,1011.44531 574.019141,1011.44531 L561.860938,1011.44531 C561.60703,1010.78125 561.480078,1010.16602 561.480078,1009.59961 C561.480078,1009.18945 561.582616,1008.8916 561.787695,1008.70605 C561.992774,1008.52051 562.329685,1008.42773 562.798438,1008.42773 L564.380469,1008.42773 C564.009373,1006.68944 563.071883,1003.34963 561.567969,998.408203 L548.355078,998.408203 C546.987884,1003.31057 546.167579,1006.65038 545.894141,1008.42773 L548.61875,1008.42773 C548.853126,1009.01367 548.970313,1009.58008 548.970313,1010.12695 C548.970313,1010.61524 548.872657,1010.95703 548.677344,1011.15234 C548.48203,1011.34766 548.140237,1011.44531 547.651953,1011.44531 L536.870703,1011.44531 C536.636327,1010.78125 536.519141,1010.16602 536.519141,1009.59961 C536.519141,1009.18945 536.621679,1008.8916 536.826758,1008.70605 C537.031837,1008.52051 537.368748,1008.42773 537.8375,1008.42773 L539.536719,1008.42773 C540.825788,1004.87303 542.964438,998.452195 545.952734,989.165039 C548.941031,979.877883 550.786715,974.531257 551.489844,973.125 C552.192972,971.718743 553.472256,971.015625 555.327734,971.015625 Z M1135.39805,971.455078 C1136.56993,971.455078 1137.32187,971.616209 1137.65391,971.938477 C1137.98594,972.260744 1138.15195,972.763668 1138.15195,973.447266 C1138.15195,974.345708 1137.68809,975.55175 1136.76035,977.06543 C1135.83261,978.579109 1133.93322,981.645485 1131.06211,986.264648 C1128.191,990.883812 1125.45177,995.341775 1122.84434,999.638672 C1120.2369,1003.93557 1118.88438,1006.61132 1118.78672,1007.66602 L1122.7125,1007.66602 C1128.80628,1007.66602 1133.816,1006.76759 1137.7418,1004.9707 C1138.54258,1006.2793 1138.94297,1007.52929 1138.94297,1008.7207 C1138.94297,1009.73633 1138.65977,1010.44433 1138.09336,1010.84473 C1137.52695,1011.24512 1136.37462,1011.44531 1134.63633,1011.44531 L1111.72617,1011.44531 C1110.47617,1011.44531 1109.85117,1010.77149 1109.85117,1009.42383 C1109.85117,1008.70117 1110.10508,1007.95411 1110.61289,1007.18262 C1111.12071,1006.41113 1113.18611,1003.17386 1116.80918,997.470703 C1120.43224,991.76755 1123.41561,986.99709 1125.75938,983.15918 C1128.10314,979.32127 1129.5875,976.679695 1130.2125,975.234375 L1127.07773,975.234375 C1120.65192,975.253906 1115.4176,976.083976 1111.37461,977.724609 C1110.55429,976.416009 1110.14414,975.146491 1110.14414,973.916016 C1110.14414,973.095699 1110.41269,972.480471 1110.9498,972.070312 C1111.48692,971.660154 1112.40976,971.455078 1113.71836,971.455078 L1135.39805,971.455078 Z M738.020703,975.146484 C734.798031,975.146484 732.371297,976.367175 730.74043,978.808594 C729.109562,981.250012 728.294141,985.224582 728.294141,990.732422 C728.294141,997.255892 729.177921,1001.72362 730.945508,1004.13574 C732.713095,1006.54786 735.335139,1007.75391 738.811719,1007.75391 C742.034391,1007.75391 744.461125,1006.53322 746.091992,1004.0918 C747.72286,1001.65038 748.538281,997.675809 748.538281,992.167969 C748.538281,985.566373 747.654501,981.079113 745.886914,978.706055 C744.119327,976.332996 741.497283,975.146484 738.020703,975.146484 Z M673.773438,975.732422 C672.289055,975.732422 671.019537,975.830077 669.964844,976.025391 C669.828124,978.974624 669.759766,986.220645 669.759766,997.763672 C669.759766,1002.60745 670.013669,1005.38574 670.521484,1006.09863 C671.029299,1006.81153 672.79686,1007.16797 675.824219,1007.16797 C679.359393,1007.16797 682.000968,1006.08888 683.749023,1003.93066 C685.497079,1001.77245 686.371094,997.753936 686.371094,991.875 C686.371094,985.839814 685.350596,981.640637 683.30957,979.277344 C681.268544,976.914051 678.089865,975.732422 673.773438,975.732422 Z M432.106641,975.732422 C430.622258,975.732422 429.35274,975.830077 428.298047,976.025391 C428.161327,978.974624 428.092969,986.220645 428.092969,997.763672 C428.092969,1002.60745 428.346872,1005.38574 428.854688,1006.09863 C429.362503,1006.81153 431.130063,1007.16797 434.157422,1007.16797 C437.692596,1007.16797 440.334171,1006.08888 442.082227,1003.93066 C443.830282,1001.77245 444.704297,997.753936 444.704297,991.875 C444.704297,985.839814 443.683799,981.640637 441.642773,979.277344 C439.601748,976.914051 436.423068,975.732422 432.106641,975.732422 Z M554.697852,977.666016 C554.434178,977.666016 552.661735,983.320256 549.380469,994.628906 L560.425391,994.628906 C556.870685,983.320256 554.961525,977.666016 554.697852,977.666016 Z M949.672852,977.666016 C949.409178,977.666016 947.636735,983.320256 944.355469,994.628906 L955.400391,994.628906 C951.845685,983.320256 949.936525,977.666016 949.672852,977.666016 Z M613.862109,975.732422 C612.514446,975.732422 611.381645,975.830077 610.463672,976.025391 C610.315867,977.614292 610.237971,981.239202 610.229982,986.900219 L610.229297,990.908203 L612.690234,990.908203 C616.088689,990.908203 618.661905,990.312506 620.409961,989.121094 C622.158017,987.929682 623.032031,986.152356 623.032031,983.789062 C623.032031,981.015611 622.241024,978.979499 620.658984,977.680664 C619.076945,976.381829 616.811343,975.732422 613.862109,975.732422 Z M1008.83711,975.732422 C1007.48945,975.732422 1006.35665,975.830077 1005.43867,976.025391 C1005.29087,977.614292 1005.21297,981.239202 1005.20498,986.900219 L1005.2043,990.908203 L1007.66523,990.908203 C1011.06369,990.908203 1013.63691,990.312506 1015.38496,989.121094 C1017.13302,987.929682 1018.00703,986.152356 1018.00703,983.789062 C1018.00703,981.015611 1017.21602,978.979499 1015.63398,977.680664 C1014.05195,976.381829 1011.78634,975.732422 1008.83711,975.732422 Z M955.019531,960 C956.933603,961.191412 957.890625,962.421869 957.890625,963.691406 C957.890625,965.527353 954.375035,967.285148 947.34375,968.964844 L945.996094,966.738281 L955.019531,960 Z M759.479776,457 L788.739196,489.445899 L775.518809,509.019943 L770.245556,523.07566 L774.975943,533.471587 L817.419558,550.760649 L841.177935,592.408003 L853.278528,631.021445 L861,676.977805 L855.858738,693.263342 L853.133763,712.069361 L842.94704,716.853608 L831.74058,710.736985 L828.734592,689.81147 L835.002035,674.064824 L828.215143,643.585664 L832.513366,610.984888 L808.031168,580.514215 L797.148298,624.832686 L800.844046,710.590593 L797.363316,741.72321 L797.808253,785.019062 L789.567333,857.274994 L786.97222,905.913079 L761.557569,912 L769.334393,871.491954 L768.789398,837.720044 L764.716837,818.884323 L762.049342,751.013774 L761.219076,717.636485 L759.460616,714.401018 L754.928216,717.067892 L749.689025,750.858896 L749.869981,776.787185 L750.78966,818.88008 L752.35652,837.690342 L752.809973,871.400725 L755.460437,910.826745 L740.862661,910.707935 L731.782958,857.973006 L732.187447,838.878448 L722.02627,800.294709 L721.953888,757.438032 L715.637481,710.125959 L718.304976,654.876914 L717.89623,625.089402 L712.99979,575.899696 L686.071501,610.694226 L683.397619,642.993733 L675.32701,673.848419 L683.535997,690.331266 L684.977253,712.444887 L673.557905,719.488658 L660.98257,713.548128 L660.633433,693.05118 L658,677.230277 L667.343684,633.524953 L678.586335,592.743219 L701.071638,550.310866 L744.684012,534.515423 L746.729873,523.313281 L739.874857,510.555994 L736.894416,489.061886 L759.479776,457 Z M603.121141,560 L623,579.338648 L603.069466,600.257928 L583.235668,622.437018 L559.318283,640.542213 L540.460527,663.689122 L520.985149,684.175149 L538.518364,706.602577 L560.751548,726.391775 L582.032667,747.122845 L602.908652,768.259987 L622.83712,789.012061 L603.121141,812 L581.35014,789.730305 L561.666821,767.401306 L539.639924,747.411955 L518.420815,726.617462 L497.209561,705.817203 L478,684.175149 L498.498962,663.818439 L517.756478,641.064835 L538.483224,619.775313 L561.729244,601.001294 L580.382366,577.650115 L603.121141,560 Z M914.317037,558 L935.372561,579.08979 L954.881255,601.575362 L978.710605,619.729185 L998.946346,641.482827 L1017.49183,664.926013 L1042,684.108827 L1020.27719,706.234623 L998.133157,726.08129 L975.611586,745.550851 L957.655905,769.585274 L935.711355,789.627919 L914.317037,808 L891,789.213269 L915.687464,769.57661 L936.853446,748.750875 L957.49269,727.40198 L975.746362,703.665445 L998.678443,684.185981 L976.919777,663.525693 L955.078266,643.375776 L933.920115,622.547153 L913.611422,600.867363 L894.192991,579.158692 L914.317037,558 Z M757.293515,545 L748.248659,561.300282 L740.338372,577.285318 L734,593.091715 L750.213554,595 L767.333496,592.99504 L786,594.2287 L775.647327,577.428229 L767.937754,560.825312 L757.293515,545 Z" id="Combined-Shape"></path>
        </g>
    </g>
</svg>